<?xml version="1.0" standalone="no"?>
<!DOCTYPE svg PUBLIC "-//W3C//DTD SVG 20010904//EN"
 "http://www.w3.org/TR/2001/REC-SVG-20010904/DTD/svg10.dtd">
<svg version="1.0" xmlns="http://www.w3.org/2000/svg"
 width="150.000000pt" height="150.000000pt" viewBox="0 0 150.000000 150.000000"
 preserveAspectRatio="xMidYMid meet">

<g transform="translate(0.000000,150.000000) scale(0.100000,-0.100000)"
fill="#000000" stroke="none">
<path d="M440 1325 l0 -75 325 0 325 0 0 75 0 75 -325 0 -325 0 0 -75z"/>
<path d="M442 903 l3 -188 118 -3 117 -3 0 191 0 190 -120 0 -120 0 2 -187z"/>
<path d="M30 637 c0 -9 11 -12 36 -9 l37 5 -5 -82 c-4 -74 -3 -81 14 -81 16 0
18 9 18 81 l0 81 30 -4 c20 -3 30 0 30 9 0 10 -20 13 -80 13 -59 0 -80 -3 -80
-13z"/>
<path d="M253 640 c-30 -12 -56 -66 -48 -99 11 -46 44 -71 92 -71 59 0 93 33
93 90 0 72 -64 109 -137 80z m84 -22 c16 -15 23 -33 23 -60 0 -58 -14 -78 -55
-78 -41 0 -66 31 -68 84 -2 67 54 97 100 54z"/>
<path d="M440 560 c0 -80 2 -90 18 -90 15 0 17 6 14 35 -3 26 0 35 11 35 8 0
27 -16 41 -35 16 -21 36 -35 48 -35 19 0 20 2 7 13 -8 6 -25 24 -38 39 -23 27
-24 29 -6 47 37 41 4 81 -67 81 l-28 0 0 -90z m80 31 c0 -28 -22 -47 -41 -35
-10 6 -12 67 -3 77 14 14 44 -15 44 -42z"/>
<path d="M618 560 c3 -77 6 -90 21 -90 14 0 16 7 13 35 -3 26 0 35 11 35 8 0
27 -16 41 -35 17 -22 35 -35 49 -34 12 0 17 3 10 5 -6 3 -23 20 -37 39 -25 33
-26 34 -8 65 17 30 17 31 -7 51 -13 11 -38 19 -60 19 l-36 0 3 -90z m63 70
c22 -13 25 -52 4 -70 -22 -18 -35 -3 -35 41 0 42 2 44 31 29z"/>
<path d="M798 560 l3 -90 45 0 c24 0 44 4 44 8 0 5 -13 7 -30 4 -29 -4 -30 -3
-30 38 0 40 2 42 25 38 14 -3 25 -1 25 3 0 5 -11 9 -25 9 -21 0 -25 5 -25 31
0 29 2 31 30 27 20 -3 30 0 30 9 0 9 -15 13 -47 13 l-48 0 3 -90z"/>
<path d="M1078 583 l3 -68 -63 63 c-35 34 -67 62 -71 62 -4 0 -7 -38 -7 -85 0
-61 3 -85 13 -85 9 0 11 17 9 62 l-4 63 64 -62 c35 -35 66 -63 70 -63 4 0 8
41 10 90 2 75 0 90 -12 90 -12 0 -14 -13 -12 -67z"/>
<path d="M1140 640 c0 -5 14 -10 30 -10 l30 0 0 -80 c0 -70 2 -80 18 -80 15 0
17 9 14 80 l-4 80 31 0 c17 0 31 5 31 10 0 6 -32 10 -75 10 -43 0 -75 -4 -75
-10z"/>
<path d="M1335 560 l0 -90 48 0 c26 0 47 4 47 8 0 5 -13 7 -30 4 -29 -4 -30
-3 -30 38 0 40 2 42 25 38 14 -3 25 -1 25 3 0 5 -11 9 -25 9 -21 0 -25 5 -25
31 0 29 2 31 30 27 20 -3 30 0 30 9 0 9 -15 13 -47 13 l-48 0 0 -90z"/>
<path d="M183 335 c0 -27 2 -39 4 -27 l5 24 26 -23 27 -24 -27 30 c-14 17 -28
39 -31 50 -3 11 -5 -2 -4 -30z"/>
<path d="M273 335 c0 -27 2 -38 4 -22 2 15 2 37 0 50 -2 12 -4 0 -4 -28z"/>
<path d="M343 335 c0 -27 2 -38 4 -22 2 15 2 37 0 50 -2 12 -4 0 -4 -28z"/>
<path d="M500 335 c0 -25 3 -45 8 -45 4 0 7 20 7 45 0 25 -3 45 -7 45 -5 0 -8
-20 -8 -45z"/>
<path d="M573 335 c0 -27 2 -38 4 -22 2 15 2 37 0 50 -2 12 -4 0 -4 -28z"/>
<path d="M620 335 c0 -25 3 -45 8 -45 4 0 7 20 7 45 0 25 -3 45 -7 45 -5 0 -8
-20 -8 -45z"/>
<path d="M690 377 c0 -3 18 -25 40 -49 22 -24 40 -38 40 -33 0 6 -18 29 -40
50 -22 21 -40 36 -40 32z"/>
<path d="M988 343 c5 -59 10 -63 11 -10 1 26 -3 47 -7 47 -4 0 -6 -17 -4 -37z"/>
<path d="M1016 367 c3 -10 9 -15 12 -12 3 3 0 11 -7 18 -10 9 -11 8 -5 -6z"/>
<path d="M1161 333 c1 -53 6 -49 11 10 2 20 0 37 -4 37 -4 0 -8 -21 -7 -47z"/>
<path d="M1233 335 c0 -27 2 -38 4 -22 2 15 2 37 0 50 -2 12 -4 0 -4 -28z"/>
<path d="M1295 335 c0 -25 3 -45 8 -45 4 0 7 20 7 45 0 25 -3 45 -8 45 -4 0
-7 -20 -7 -45z"/>
<path d="M851 359 c-1 -17 55 -76 64 -67 3 3 -6 13 -20 22 -14 10 -30 27 -35
39 -6 14 -9 16 -9 6z"/>
<path d="M1101 330 c11 -22 21 -40 23 -40 3 0 -3 18 -11 40 -9 22 -19 40 -24
40 -4 0 2 -18 12 -40z"/>
<path d="M391 342 c-1 -20 18 -52 32 -52 9 0 9 2 0 8 -7 4 -16 19 -22 32 -5
14 -10 19 -10 12z"/>
<path d="M692 320 c0 -19 2 -27 5 -17 2 9 2 25 0 35 -3 9 -5 1 -5 -18z"/>
<path d="M1020 333 c0 -4 5 -15 10 -23 8 -13 10 -13 10 2 0 9 -4 20 -10 23 -5
3 -10 3 -10 -2z"/>
<path d="M840 316 c0 -8 4 -17 9 -20 5 -4 7 3 4 14 -6 23 -13 26 -13 6z"/>
<path d="M280 155 c0 -27 3 -46 6 -42 3 3 6 22 6 42 0 20 -3 39 -6 42 -3 4 -6
-15 -6 -42z"/>
<path d="M363 155 c0 -27 2 -38 4 -22 2 15 2 37 0 50 -2 12 -4 0 -4 -28z"/>
<path d="M662 155 c1 -38 2 -42 5 -16 l4 34 35 -34 c47 -45 43 -29 -6 23 l-40
43 2 -50z"/>
<path d="M823 155 c0 -27 2 -38 4 -22 2 15 2 37 0 50 -2 12 -4 0 -4 -28z"/>
<path d="M930 155 c0 -27 3 -46 6 -42 3 3 6 22 6 42 0 20 -3 39 -6 42 -3 4 -6
-15 -6 -42z"/>
<path d="M1083 155 c0 -27 2 -38 4 -22 2 15 2 37 0 50 -2 12 -4 0 -4 -28z"/>
<path d="M1230 194 c0 -5 18 -28 40 -49 22 -21 40 -36 40 -33 0 4 -18 26 -40
49 -22 24 -40 39 -40 33z"/>
<path d="M450 187 c0 -13 33 -67 40 -67 5 0 0 16 -11 35 -19 31 -29 42 -29 32z"/>
<path d="M516 173 c-6 -14 -5 -15 5 -6 7 7 10 15 7 18 -3 3 -9 -2 -12 -12z"/>
<path d="M601 186 c-2 -17 23 -76 31 -76 5 0 2 12 -5 28 -8 15 -17 34 -20 42
-3 8 -6 11 -6 6z"/>
<path d="M889 152 c5 -34 6 -35 9 -8 2 16 0 32 -5 37 -5 5 -7 -7 -4 -29z"/>
<path d="M1000 178 c0 -8 9 -23 20 -33 11 -10 20 -15 20 -11 0 4 -9 19 -20 33
-13 17 -20 20 -20 11z"/>
<path d="M1123 151 c1 -21 8 -36 17 -39 12 -4 13 -2 3 9 -6 8 -13 25 -16 39
-4 17 -5 15 -4 -9z"/>
<path d="M161 162 c-1 -20 18 -52 32 -52 9 0 9 2 0 8 -7 4 -16 19 -22 32 -5
14 -10 19 -10 12z"/>
<path d="M532 135 c0 -16 2 -22 5 -12 2 9 2 23 0 30 -3 6 -5 -1 -5 -18z"/>
<path d="M395 130 c10 -11 20 -20 23 -20 3 0 -3 9 -13 20 -10 11 -20 20 -23
20 -3 0 3 -9 13 -20z"/>
<path d="M1192 130 c0 -14 2 -19 5 -12 2 6 2 18 0 25 -3 6 -5 1 -5 -13z"/>
<path d="M1231 124 c0 -11 3 -14 6 -6 3 7 2 16 -1 19 -3 4 -6 -2 -5 -13z"/>
</g>
</svg>
