<?xml version="1.0" standalone="no"?>
<!DOCTYPE svg PUBLIC "-//W3C//DTD SVG 20010904//EN"
 "http://www.w3.org/TR/2001/REC-SVG-20010904/DTD/svg10.dtd">
<svg version="1.0" xmlns="http://www.w3.org/2000/svg"
 width="225.000000pt" height="225.000000pt" viewBox="0 0 225.000000 225.000000"
 preserveAspectRatio="xMidYMid meet">

<g transform="translate(0.000000,225.000000) scale(0.100000,-0.100000)"
fill="#000000" stroke="none">
<path d="M667 2093 c-4 -3 -7 -53 -7 -110 l0 -103 485 0 485 0 0 110 0 110
-478 0 c-263 0 -482 -3 -485 -7z"/>
<path d="M670 1355 l0 -285 175 0 175 0 -2 283 -3 282 -172 3 -173 2 0 -285z"/>
<path d="M47 949 c-4 -17 -3 -19 6 -10 6 6 28 11 49 11 l38 0 0 -119 c0 -82
-4 -121 -12 -123 -6 -2 13 -4 43 -4 30 0 46 1 37 3 -16 4 -18 18 -18 124 l0
119 33 0 c18 0 38 -5 45 -12 9 -9 12 -7 12 10 0 21 -3 22 -114 22 -108 0 -114
-1 -119 -21z"/>
<path d="M370 953 c-78 -53 -87 -154 -20 -218 39 -37 118 -46 169 -17 89 48
95 193 11 237 -40 21 -129 20 -160 -2z m136 -27 c31 -31 34 -39 34 -94 0 -74
-28 -115 -78 -115 -70 0 -119 69 -108 153 12 90 90 118 152 56z"/>
<path d="M653 959 c14 -9 17 -26 17 -119 0 -82 -4 -112 -15 -123 -12 -13 -8
-15 38 -14 29 0 44 2 35 4 -14 4 -18 15 -18 58 0 48 2 53 20 48 11 -3 36 -27
55 -53 23 -31 45 -51 63 -54 30 -6 177 -5 150 1 -20 5 -31 37 -26 79 4 37 34
35 63 -4 61 -81 51 -77 182 -77 l118 0 3 25 c3 23 3 24 -10 7 -10 -13 -24 -18
-48 -15 l-35 3 -3 58 -3 59 42 -4 c24 -2 44 2 46 8 2 7 -12 10 -39 10 l-43 -1
-3 48 -3 47 35 0 c23 0 39 -6 45 -17 9 -15 10 -14 11 10 l0 27 -82 -1 c-46 -1
-75 -3 -65 -6 16 -4 17 -17 15 -126 -3 -120 -3 -122 -27 -125 -18 -3 -35 9
-72 49 -27 29 -49 57 -49 62 0 5 9 20 20 34 23 30 26 62 6 88 -12 17 -28 20
-98 22 -45 1 -75 0 -65 -3 15 -5 17 -20 17 -130 0 -123 0 -124 -23 -124 -29 0
-47 14 -91 69 l-35 45 20 24 c10 14 19 40 19 58 0 48 -29 64 -115 64 -52 -1
-66 -3 -52 -11z m115 -21 c16 -16 16 -80 0 -96 -7 -7 -22 -12 -35 -12 -21 0
-23 4 -23 60 0 56 2 60 23 60 13 0 28 -5 35 -12z m276 -20 c16 -45 -3 -83 -39
-83 -29 0 -30 1 -33 58 l-3 58 33 -3 c25 -2 35 -9 42 -30z"/>
<path d="M1418 846 c-2 -92 -7 -129 -16 -135 -9 -5 1 -8 26 -8 35 0 39 2 26
14 -10 10 -14 38 -14 96 l0 82 98 -98 99 -99 6 84 c4 46 7 104 7 130 0 28 5
48 13 51 6 3 -8 5 -33 5 -25 0 -37 -2 -28 -5 14 -3 17 -20 20 -94 2 -49 1 -89
-2 -89 -2 0 -48 43 -101 96 l-97 97 -4 -127z"/>
<path d="M1710 958 c0 -9 15 -12 51 -9 l52 3 -5 -117 c-3 -71 -10 -120 -17
-124 -6 -4 12 -7 39 -7 34 0 45 3 35 8 -12 7 -15 31 -15 123 l0 115 33 0 c18
0 38 -5 45 -12 9 -9 12 -7 12 10 0 21 -3 22 -115 22 -85 0 -115 -3 -115 -12z"/>
<path d="M1993 963 c15 -4 17 -19 17 -123 0 -95 -3 -121 -15 -127 -9 -5 18 -9
68 -8 80 0 82 1 85 25 3 23 3 24 -10 7 -10 -13 -24 -18 -48 -15 l-35 3 -3 58
c-3 57 -3 57 26 57 15 0 33 -5 39 -11 7 -7 12 -5 15 9 5 16 0 18 -36 18 l-41
-1 -3 48 -3 47 35 0 c23 0 39 -6 45 -17 9 -15 10 -14 11 10 l0 27 -82 -1 c-46
-1 -75 -3 -65 -6z"/>
<path d="M265 500 c0 -38 3 -70 8 -70 4 0 7 17 7 37 l0 37 38 -37 c51 -50 66
-47 17 3 l-39 40 29 30 c16 16 26 30 22 30 -4 0 -21 -15 -37 -32 l-29 -33 -1
33 c0 17 -3 32 -7 32 -5 0 -8 -31 -8 -70z"/>
<path d="M404 500 c0 -39 3 -70 8 -70 4 0 8 32 8 70 0 39 -3 70 -7 70 -5 0 -8
-32 -9 -70z"/>
<path d="M483 563 c26 -4 27 -6 27 -69 0 -35 4 -64 8 -64 4 0 6 29 4 64 -4 64
-4 64 24 69 16 2 2 4 -31 4 -33 0 -48 -2 -32 -4z"/>
<path d="M607 552 c-17 -19 -22 -68 -9 -88 18 -27 93 -46 106 -26 2 4 -10 6
-28 4 -62 -7 -99 65 -56 108 11 11 16 20 12 20 -5 0 -16 -8 -25 -18z"/>
<path d="M680 566 c0 -2 7 -6 15 -10 8 -3 15 -1 15 4 0 6 -7 10 -15 10 -8 0
-15 -2 -15 -4z"/>
<path d="M755 500 c0 -39 3 -70 8 -70 4 0 7 32 7 70 0 39 -3 70 -7 70 -5 0 -8
-32 -8 -70z"/>
<path d="M850 500 c0 -38 3 -70 8 -70 4 0 7 32 7 70 0 39 -3 70 -7 70 -5 0 -8
-31 -8 -70z"/>
<path d="M930 500 l0 -70 33 1 c23 1 26 3 10 6 -18 3 -23 11 -23 33 0 22 5 30
23 33 l22 4 -22 2 c-17 1 -23 7 -23 25 0 18 7 26 23 29 16 3 13 5 -10 6 l-33
1 0 -70z"/>
<path d="M1042 500 c2 -71 2 -72 5 -16 l4 58 54 -58 54 -59 1 73 c0 39 -3 72
-7 72 -5 0 -7 -26 -5 -57 l3 -58 -55 60 -56 60 2 -75z"/>
<path d="M1281 556 c-6 -7 -9 -20 -5 -29 3 -8 1 -18 -5 -22 -15 -8 -14 -48 1
-63 7 -7 21 -12 33 -11 19 0 19 1 -3 9 -26 11 -37 33 -28 57 6 14 11 12 36
-12 16 -15 27 -31 25 -35 -2 -4 1 -7 8 -7 7 0 21 -4 32 -9 11 -4 -4 14 -33 41
-41 38 -52 55 -49 72 5 27 3 28 -12 9z"/>
<path d="M1325 560 c3 -5 8 -10 11 -10 2 0 4 5 4 10 0 6 -5 10 -11 10 -5 0 -7
-4 -4 -10z"/>
<path d="M1480 500 c0 -70 0 -70 28 -69 26 0 26 1 5 9 -21 8 -23 15 -20 70 1
33 -1 60 -5 60 -4 0 -8 -31 -8 -70z"/>
<path d="M1519 562 c9 -6 11 -19 7 -35 -3 -14 -2 -29 4 -32 5 -3 10 -18 11
-33 0 -26 1 -27 11 -5 8 17 8 27 -3 39 -7 9 -13 27 -14 42 0 14 -7 27 -15 29
-12 4 -13 3 -1 -5z"/>
<path d="M1627 550 c-3 -11 -1 -18 4 -15 4 3 11 -7 15 -22 8 -34 34 -86 40
-81 3 4 -43 127 -51 136 -1 1 -5 -6 -8 -18z"/>
<path d="M1724 563 c28 -5 28 -5 24 -69 -2 -35 0 -64 4 -64 4 0 8 29 8 64 0
63 1 65 28 69 15 2 0 4 -33 4 -33 0 -47 -2 -31 -4z"/>
<path d="M1848 500 c-2 -42 1 -70 7 -70 6 0 10 30 10 70 0 91 -12 91 -17 0z"/>
<path d="M1940 500 c0 -40 4 -70 10 -70 6 0 10 30 10 70 0 40 -4 70 -10 70 -6
0 -10 -30 -10 -70z"/>
<path d="M1611 513 c-1 -6 -4 -20 -7 -30 -5 -17 -5 -17 6 0 6 10 9 23 6 30 -3
9 -5 9 -5 0z"/>
<path d="M1361 494 c0 -11 3 -14 6 -6 3 7 2 16 -1 19 -3 4 -6 -2 -5 -13z"/>
<path d="M1586 445 c-3 -8 -1 -15 4 -15 6 0 10 7 10 15 0 8 -2 15 -4 15 -2 0
-6 -7 -10 -15z"/>
<path d="M291 296 c10 -9 79 -14 74 -5 -4 5 -22 9 -42 9 -20 0 -34 -2 -32 -4z"/>
<path d="M420 230 l0 -70 33 1 c23 1 26 3 10 6 -18 3 -23 11 -23 35 0 25 3 29
20 25 11 -3 20 -1 20 4 0 5 -9 9 -20 9 -30 0 -28 47 3 53 16 3 13 5 -10 6
l-33 1 0 -70z"/>
<path d="M535 230 c0 -38 3 -70 8 -70 4 0 7 29 7 65 0 50 3 65 15 65 21 0 35
-32 23 -54 -8 -14 -6 -24 9 -44 11 -14 26 -28 34 -30 8 -3 1 9 -14 25 -25 27
-27 33 -15 58 11 24 10 29 -7 41 -10 8 -28 14 -39 14 -19 0 -21 -6 -21 -70z"/>
<path d="M773 256 c-28 -57 -30 -75 -3 -26 l19 35 1 -30 c0 -40 10 -75 21 -75
5 0 6 6 4 13 -3 6 -8 38 -13 71 l-7 58 -22 -46z"/>
<path d="M990 233 c0 -40 3 -73 8 -73 4 0 6 26 4 57 l-3 58 55 -60 c30 -33 55
-55 56 -49 0 6 -27 40 -60 75 l-60 64 0 -72z"/>
<path d="M1103 250 c0 -30 2 -43 4 -27 2 15 2 39 0 55 -2 15 -4 2 -4 -28z"/>
<path d="M1230 231 c0 -50 4 -71 13 -71 9 0 11 18 9 65 -4 64 -3 65 22 65 58
0 90 -82 44 -114 -12 -9 -18 -16 -12 -16 38 0 60 94 29 120 -8 7 -35 15 -60
18 l-45 5 0 -72z"/>
<path d="M1400 230 l0 -70 33 1 c30 2 30 2 5 6 -23 4 -28 9 -28 33 0 22 5 30
23 33 l22 4 -22 2 c-17 1 -23 7 -23 25 0 19 6 26 28 29 25 4 25 4 -5 6 l-33 1
0 -70z"/>
<path d="M1512 288 c-18 -18 -15 -27 18 -65 27 -30 29 -37 18 -51 -12 -15 -11
-16 5 -3 24 19 22 30 -15 68 -26 27 -29 35 -18 48 15 18 9 20 -8 3z"/>
<path d="M1615 230 c0 -38 3 -70 8 -70 4 0 7 32 7 70 0 39 -3 70 -7 70 -5 0
-8 -31 -8 -70z"/>
<path d="M1765 290 c28 -12 37 -12 30 0 -3 6 -16 10 -28 9 -21 0 -21 -1 -2 -9z"/>
<path d="M1958 245 c2 -30 2 -55 -1 -55 -3 0 -28 24 -56 53 -28 28 -50 45 -50
37 1 -8 28 -39 60 -69 l59 -54 0 71 c0 40 -3 72 -7 72 -5 0 -6 -25 -5 -55z"/>
<path d="M260 274 c-32 -37 -2 -115 44 -113 15 0 16 2 6 6 -46 17 -68 81 -38
111 7 7 9 12 6 12 -3 0 -11 -7 -18 -16z"/>
<path d="M676 255 c-4 -22 -9 -52 -11 -67 -3 -16 0 -28 5 -28 6 0 9 3 9 8 -1
4 -1 27 0 52 l2 45 28 -54 c20 -38 30 -49 34 -38 3 9 2 17 -2 19 -5 2 -20 26
-34 53 l-25 50 -6 -40z"/>
<path d="M890 281 c0 -6 4 -12 9 -15 5 -3 11 -15 14 -27 5 -18 2 -20 -19 -16
-13 2 -24 0 -24 -4 0 -5 11 -9 25 -9 17 0 29 -8 37 -25 6 -14 14 -25 19 -25 9
0 -44 130 -53 130 -5 0 -8 -4 -8 -9z"/>
<path d="M1690 274 c-32 -37 -2 -115 44 -113 15 0 16 2 6 6 -46 17 -68 81 -38
111 7 7 9 12 6 12 -3 0 -11 -7 -18 -16z"/>
<path d="M1848 205 c-2 -25 0 -45 4 -45 5 0 8 20 8 45 0 25 -2 45 -4 45 -2 0
-6 -20 -8 -45z"/>
<path d="M348 195 c-2 -22 0 -34 6 -32 14 4 21 67 8 67 -6 0 -12 -16 -14 -35z"/>
<path d="M1780 201 c0 -16 -6 -32 -12 -35 -7 -3 -4 -5 7 -3 15 2 21 11 23 35
2 18 -1 32 -7 32 -6 0 -11 -13 -11 -29z"/>
<path d="M856 185 c-9 -26 -7 -32 5 -12 6 10 9 21 6 23 -2 3 -7 -2 -11 -11z"/>
</g>
</svg>
